<?xml version="1.0" encoding="UTF-8" standalone="no"?>
<!-- Created with Inkscape (http://www.inkscape.org/) -->

<svg
   width="96.898422mm"
   height="94.690445mm"
   viewBox="0 0 96.898422 94.690445"
   version="1.1"
   id="svg5"
   sodipodi:docname="logo.svg"
   inkscape:export-filename="logo.png"
   inkscape:export-xdpi="96"
   inkscape:export-ydpi="96"
   inkscape:version="1.1.1 (1:1.1+202109281949+c3084ef5ed)"
   xmlns:inkscape="http://www.inkscape.org/namespaces/inkscape"
   xmlns:sodipodi="http://sodipodi.sourceforge.net/DTD/sodipodi-0.dtd"
   xmlns="http://www.w3.org/2000/svg"
   xmlns:svg="http://www.w3.org/2000/svg">
  <sodipodi:namedview
     id="namedview7"
     pagecolor="#505050"
     bordercolor="#ffffff"
     borderopacity="1"
     inkscape:pageshadow="0"
     inkscape:pageopacity="0"
     inkscape:pagecheckerboard="1"
     inkscape:document-units="mm"
     showgrid="false"
     inkscape:zoom="1.4142136"
     inkscape:cx="76.013977"
     inkscape:cy="190.56527"
     inkscape:window-width="1920"
     inkscape:window-height="1016"
     inkscape:window-x="0"
     inkscape:window-y="27"
     inkscape:window-maximized="1"
     inkscape:current-layer="text3686" />
  <defs
     id="defs2" />
  <g
     inkscape:label="Capa 1"
     inkscape:groupmode="layer"
     id="layer1"
     transform="translate(-70.702784,-87.740625)">
    <g
       aria-label="UNparche"
       id="text3686"
       style="font-size:25.5669px;line-height:1.25;opacity:1;fill:#94b43b;stroke-width:0.264583">
      <path
         d="m 70.794818,172.28211 c 0,3.6305 2.096485,5.39461 5.548017,5.39461 4.014003,0 6.059355,-2.17318 6.059355,-6.08492 v -9.86882 h -2.22432 v 10.43129 c 0,2.40329 -1.176077,3.52823 -2.914627,3.52823 -2.710091,0 -4.116271,-1.09937 -4.116271,-4.2441 v -9.71542 h -2.352154 z"
         style="font-family:'Ancizar Sans';-inkscape-font-specification:'Ancizar Sans'"
         id="path2826" />
      <path
         d="m 98.713869,177.21652 v -15.49354 h -2.096486 v 11.91417 l -7.797904,-11.91417 h -2.326588 v 15.64694 h 2.096486 v -12.04201 l 8.181408,12.34881 z"
         style="font-family:'Ancizar Sans';-inkscape-font-specification:'Ancizar Sans'"
         id="path2828" />
      <path
         d="m 107.9435,175.88704 c -1.15051,0 -2.17319,-0.25567 -2.88906,-0.51134 v -7.46553 c 0.8437,-0.30681 1.71298,-0.56248 2.37772,-0.56248 1.63628,0 3.42596,0.94598 3.42596,4.21854 0,3.0936 -1.25278,4.32081 -2.91462,4.32081 z m -2.88906,6.74966 v -5.47132 c 0.94597,0.35794 1.66184,0.51134 2.53112,0.51134 2.22432,0 5.49688,-1.94308 5.49688,-6.34059 0,-4.11627 -2.22432,-5.77812 -4.75544,-5.77812 -1.04824,0 -2.65896,0.66474 -3.4771,1.04824 l -0.40907,-1.04824 -1.58515,0.35794 v 17.07869 z"
         style="font-family:'Ancizar Sans';-inkscape-font-specification:'Ancizar Sans'"
         id="path2830" />
      <path
         d="m 122.03083,177.67672 1.68742,-0.35793 v -8.05358 c 0,-2.53112 -1.25278,-3.7072 -3.57937,-3.7072 -1.73855,0 -3.11916,0.40907 -4.72987,1.02268 l 0.56247,1.61071 c 1.02267,-0.33237 2.37772,-0.76701 3.4004,-0.76701 1.17607,0 2.22432,0.33237 2.22432,2.12206 v 1.27834 c -4.29524,0.10227 -6.4173,1.63628 -6.4173,3.7839 0,2.17319 1.53402,3.06803 3.06803,3.06803 1.32948,0 2.8635,-0.84371 3.4771,-1.25278 z m -3.01689,-1.78968 c -0.92041,0 -1.76412,-0.58804 -1.76412,-1.89195 0,-1.40618 1.45732,-1.63628 2.53113,-1.63628 0.79257,0 1.43174,0.0511 1.81525,0.10226 v 2.68453 c -0.92041,0.43464 -1.81525,0.74144 -2.58226,0.74144 z"
         style="font-family:'Ancizar Sans';-inkscape-font-specification:'Ancizar Sans'"
         id="path2832" />
      <path
         d="m 132.1809,167.7312 c 0.33237,0 0.79257,0 0.94597,0.0511 l 0.25567,-2.19875 c -0.0767,-0.0256 -0.1534,-0.0256 -0.2301,-0.0256 -1.53402,0 -2.96576,0.92041 -3.75834,1.53401 l -0.3835,-1.53401 -1.78968,0.35794 v 11.45397 h 2.19875 v -8.84615 c 0.74144,-0.4602 1.76412,-0.76701 2.76123,-0.79257 z"
         style="font-family:'Ancizar Sans';-inkscape-font-specification:'Ancizar Sans'"
         id="path2834" />
      <path
         d="m 143.32804,175.35013 c -0.6903,0.25567 -1.66185,0.53691 -2.73566,0.53691 -1.89195,0 -3.52823,-1.25278 -3.52823,-4.57648 0,-3.01689 1.22721,-3.96287 2.81236,-3.96287 1.32948,0 2.42886,0.43464 3.14473,0.63918 l 0.5369,-1.91752 c -0.51133,-0.28124 -1.71298,-0.51134 -3.17029,-0.51134 -3.29813,0 -5.59915,2.68453 -5.59915,6.34059 0,4.01401 1.96865,5.77812 5.11338,5.77812 1.30391,0 2.86349,-0.28123 3.88617,-0.76701 z"
         style="font-family:'Ancizar Sans';-inkscape-font-specification:'Ancizar Sans'"
         id="path2836" />
      <path
         d="m 151.07478,167.44996 c 0.97154,0 2.19875,0.40907 2.19875,2.32659 v 7.59337 h 2.19876 v -8.61605 c 0,-2.30102 -1.58515,-3.19586 -3.34927,-3.19586 -1.17607,0 -2.73565,0.58804 -3.7839,1.15051 v -7.0309 l -2.19875,0.35794 v 17.33436 h 2.19875 v -9.25522 c 1.04825,-0.40907 2.01979,-0.66474 2.73566,-0.66474 z"
         style="font-family:'Ancizar Sans';-inkscape-font-specification:'Ancizar Sans'"
         id="path2838" />
      <path
         d="m 162.88666,167.16873 c 1.81525,0 2.50556,0.9971 2.50556,2.83792 h -4.90885 c 0.20454,-2.19875 0.89484,-2.83792 2.40329,-2.83792 z m 4.80658,9.58758 -0.40907,-1.58514 c -1.32948,0.48577 -2.27546,0.6903 -3.42597,0.6903 -1.78968,0 -3.42596,-0.97154 -3.42596,-4.26967 v -0.17897 h 7.15873 c 0.0511,-0.28123 0.0511,-0.97154 0.0511,-1.48288 0,-2.53112 -1.15052,-4.37194 -4.19298,-4.37194 -2.99132,0 -5.29234,2.32659 -5.29234,6.54513 0,3.7072 2.22432,5.57358 5.21564,5.57358 1.48288,0 2.7868,-0.3068 4.32081,-0.92041 z"
         style="font-family:'Ancizar Sans';-inkscape-font-specification:'Ancizar Sans'"
         id="path2840" />
    </g>
    <ellipse
       style="fill:none;fill-opacity:1;stroke:#94b43b;stroke-width:1.5875;stroke-miterlimit:4;stroke-dasharray:none;stroke-opacity:1"
       id="path9897"
       cx="102.18292"
       cy="110.98867"
       rx="11.436061"
       ry="11.415857" />
    <ellipse
       style="fill:none;fill-opacity:1;stroke:#94b43b;stroke-width:1.5875;stroke-miterlimit:4;stroke-dasharray:none;stroke-opacity:1"
       id="path9897-3"
       cx="127.95895"
       cy="110.98282"
       rx="11.436061"
       ry="11.415857" />
    <path
       style="fill:#94b43b;fill-opacity:1;stroke:#94b43b;stroke-width:0.264583;stroke-linecap:butt;stroke-linejoin:round;stroke-miterlimit:4;stroke-dasharray:none;stroke-opacity:1"
       d="m 122.16943,111.66003 c 3.08748,-3.63018 7.87814,-3.42186 9.55998,0.0869 0.25592,-2.90099 -5.26505,-10.45778 -9.55998,-0.0869 z"
       id="path10833" />
    <path
       style="fill:#94b43b;fill-opacity:1;stroke:#94b43b;stroke-width:0.264583;stroke-linecap:butt;stroke-linejoin:round;stroke-miterlimit:4;stroke-dasharray:none;stroke-opacity:1"
       d="m 98.809502,111.58763 c 3.087498,-3.63019 7.878168,-3.42186 9.559998,0.0869 0.25593,-2.901 -5.26505,-10.45778 -9.559998,-0.0869 z"
       id="path10833-3" />
    <path
       style="fill:#94b43b;fill-opacity:1;stroke:#94b43b;stroke-width:0.264583px;stroke-linecap:round;stroke-linejoin:round;stroke-opacity:1"
       d="m 141.14041,118.20156 c -0.86785,1.03566 -8.5035,9.51422 -8.5035,9.51422 0,0 -3.9201,3.90892 -5.29159,6.93273 -1.37148,3.02378 -1.40746,5.02297 0.19547,7.40148 1.60302,2.37856 5.27138,3.83135 8.94205,2.36737 3.67065,-1.46403 7.86108,-6.40005 9.2578,-9.87416 1.3967,-3.47408 2.01882,-9.32612 -4.60025,-16.34164 z"
       id="path2513" />
    <path
       style="fill:#94b43b;fill-opacity:1;stroke:#94b43b;stroke-width:0.264583px;stroke-linecap:round;stroke-linejoin:round;stroke-opacity:1"
       d="m 126.31057,144.07122 3.42559,2.86013 c 0,0 -9.4539,12.14624 -17.57635,10.97995 5.99606,-3.4448 13.64133,-10.25824 14.15076,-13.84008 z"
       id="path2664" />
    <path
       style="fill:#94b43b;fill-opacity:1;stroke:#94b43b;stroke-width:0.264583px;stroke-linecap:butt;stroke-linejoin:miter;stroke-opacity:1"
       d="m 97.591554,126.75755 c 7.436356,-0.29959 14.837076,2.57374 15.613906,12.39455 0.77683,9.82081 -2.67705,15.69111 -2.67705,15.69111 0,0 -2.12597,3.01283 -3.62557,2.2955 -1.49962,-0.71733 -11.930732,-7.14243 -12.8353,-21.59873 -0.295389,-7.68479 -0.385867,-8.88573 3.524014,-8.78243 z"
       id="path983" />
    <path
       style="fill:#94b43b;fill-opacity:1;stroke:#94b43b;stroke-width:0.264583;stroke-linecap:round;stroke-linejoin:round;stroke-miterlimit:4;stroke-dasharray:none;stroke-opacity:1"
       d="m 114.69923,128.17826 c 0.18834,-1.07378 3.33331,-4.55666 3.388,-4.75868 0.0546,-0.20203 -3.51349,-3.15024 -3.51349,-3.15024 0,0 -3.59557,3.15929 -3.55451,3.38887 0.041,0.22958 3.31234,2.95798 3.68,4.52005 z"
       id="path1311" />
    <path
       style="fill:#94b43b;fill-opacity:1;stroke:#94b43b;stroke-width:0.264583;stroke-linecap:round;stroke-linejoin:round;stroke-miterlimit:4;stroke-dasharray:none;stroke-opacity:1"
       d="m 114.68029,102.1072 c -0.0404,-0.0457 -0.28185,-0.40306 -0.53642,-0.79428 -0.55587,-0.85431 -0.91003,-1.28734 -1.54824,-1.893112 -2.04994,-1.945698 -5.06823,-3.211171 -8.99613,-3.771754 -1.40284,-0.2003 -3.33839,-0.332469 -4.878187,-0.333288 l -0.840397,-4.53e-4 -0.275949,-0.332663 c -1.320069,-1.591301 -1.677015,-3.701874 -0.986256,-5.831702 0.277569,-0.855902 0.369106,-0.893009 0.924051,-0.374577 1.864991,1.742227 3.399628,2.956838 4.277778,3.385771 l 0.26368,0.128718 0.66264,-0.260693 c 2.89604,-1.139363 6.35204,-1.977284 9.71212,-2.354772 0.70523,-0.07913 2.0589,-0.192754 2.29809,-0.192754 0.0475,0 0.0775,0.05951 0.0901,0.177877 l 0.0194,0.177877 0.009,-0.182189 0.009,-0.182189 0.46317,0.0304 c 4.03209,0.264057 8.18543,1.166013 11.62454,2.524435 l 0.66309,0.261922 0.26325,-0.127641 c 0.84685,-0.410627 2.3733,-1.604345 4.04593,-3.164017 0.8075,-0.75297 0.86982,-0.747666 1.14978,0.09789 0.70625,2.133105 0.34706,4.289668 -0.98115,5.890779 l -0.25913,0.312374 -1.41856,0.02997 c -3.96457,0.08387 -7.08997,0.647473 -9.63669,1.737699 -1.60509,0.687103 -3.05141,1.662754 -4.06021,2.738836 -0.48004,0.512066 -0.77221,0.899026 -1.28143,1.697146 -0.21632,0.33904 -0.41762,0.63212 -0.44732,0.65128 -0.0948,0.0612 -0.25074,0.0388 -0.32666,-0.0466 z m 0.36392,-1.57071 c 0.032,-0.0515 -0.15249,-10.538962 -0.18575,-10.572273 -0.013,-0.01294 -0.0242,0.05951 -0.0242,0.161491 1e-4,0.429191 -0.14018,8.384166 -0.16545,9.373336 l -0.0274,1.078796 h 0.18856 c 0.10367,0 0.2,-0.0194 0.21426,-0.0414 z"
       id="path1920" />
    <path
       style="fill:#94b43b;fill-opacity:1;stroke:#94b43b;stroke-width:0.264583;stroke-linecap:round;stroke-linejoin:round;stroke-miterlimit:4;stroke-dasharray:none;stroke-opacity:1"
       d="m 114.78269,100.41123 c 8e-5,-0.0166 0.007,-0.30736 0.0159,-0.646057 0.009,-0.338701 0.0237,-1.056238 0.0333,-1.594527 0.01,-0.538292 0.0215,-1.062837 0.0264,-1.165656 l 0.009,-0.186944 0.002,0.190722 c 10e-4,0.104897 0.009,0.683874 0.0175,1.286618 0.009,0.602745 0.0189,1.332191 0.0227,1.620991 l 0.007,0.525093 h -0.0667 c -0.0655,0 -0.0667,-5.3e-4 -0.0665,-0.0302 z"
       id="path2506" />
    <path
       style="fill:#94b43b;fill-opacity:1;stroke:#94b43b;stroke-width:0.264583;stroke-linecap:round;stroke-linejoin:round;stroke-miterlimit:4;stroke-dasharray:none;stroke-opacity:1"
       d="m 114.85662,96.680439 c 10e-6,-0.0027 10e-4,-0.0663 0.003,-0.141336 10e-4,-0.07503 0.003,-0.14224 0.003,-0.149346 9e-5,-0.0071 10e-4,0.04615 0.002,0.11834 0.001,0.07219 0.002,0.141608 0.002,0.154255 l 9e-5,0.02299 h -0.005 -0.005 z"
       id="path2545" />
  </g>
</svg>
